# xmcd
#
# Track frame offsets: 
#        150
#        16508
#        32702
#        50686
#        75530
#        91580
#        116483
#        138807
#        159823
#        177234
#        199754
#        224152
#        236565
#        253422
#
# Disc length: 3588 seconds
#
# Revision: 0
# Processed by: cddbd v1.5.2PL0 Copyright (c) Steve Scherf et al.
# Submitted via: ExactAudioCopy v1.2
#
DISCID=b10e020e
DTITLE=Uira Cabral - Blues Is Calling
DYEAR=2017
DGENRE=Blues
TTITLE0=Blues Is Calling
TTITLE1=Blowin The Hucklebuck
TTITLE2=Tell Me
TTITLE3=Sting Stang
TTITLE4=Call Everybody Sweetheart
TTITLE5=Must Be Jelly
TTITLE6=Never Can Tell
TTITLE7=My Way Of The Highway
TTITLE8=That's What Love Is Made For
TTITLE9=I'm Your .44
TTITLE10=Blue Hour
TTITLE11=She's My Baby
TTITLE12=I Ain't Drunk
TTITLE13=Man For You
EXTD=
EXTT0=
EXTT1=
EXTT2=
EXTT3=
EXTT4=
EXTT5=
EXTT6=
EXTT7=
EXTT8=
EXTT9=
EXTT10=
EXTT11=
EXTT12=
EXTT13=
PLAYORDER=
